<?xml version="1.0" encoding="utf-8"?>
<!-- Generator: Adobe Illustrator 18.1.1, SVG Export Plug-In . SVG Version: 6.00 Build 0)  -->
<svg version="1.1" id="Layer_1" xmlns="http://www.w3.org/2000/svg" xmlns:xlink="http://www.w3.org/1999/xlink" x="0px" y="0px"
	 viewBox="-1373 1393.5 70.5 66.7" enable-background="new -1373 1393.5 70.5 66.7" xml:space="preserve">
<g>
	<path d="M-1332.4,1426.3l29.9,0l0-2.9l-6.5,0v-12.1l-1.9-3.6l-2.2,3.6v12.1l-2.6,0V1398h-1.3v-4.4h-1v4.4h-1.9v-4.4h-1v4.4h-1.1
		v25.5l-4.2,0V1405h-5.4v18.4l-2.3,0v-14.7h-5.2v11.3h-7v3.4l-3.8,0v-24.6h-5.7v6.4l-4-1.7l-4.5,1.7v18.2l-2.5,0v-2.4h-5.1v2.4
		l-1.3,0l0,2.9l30,0l-29.9,33.8h33.4l0.1-6.3h2.3l0.1,6.3h34.5L-1332.4,1426.3z M-1338.2,1426.7l0.1,1h-0.1L-1338.2,1426.7z
		 M-1338.4,1429.2h0.4l0.1,1.2h-0.6L-1338.4,1429.2z M-1338.4,1432.1h0.5l0.1,1.9l-0.8,0L-1338.4,1432.1z M-1338.9,1437h1.3l0.1,2.8
		h-1.6L-1338.9,1437z M-1339.2,1449.1l0.1-4.3h1.8l0.1,4.3H-1339.2z"/>
</g>
</svg>
