<?xml version="1.0" encoding="utf-8"?>
<!-- Generator: Adobe Illustrator 18.1.1, SVG Export Plug-In . SVG Version: 6.00 Build 0)  -->
<svg version="1.1" id="Layer_1" xmlns="http://www.w3.org/2000/svg" xmlns:xlink="http://www.w3.org/1999/xlink" x="0px" y="0px"
	 viewBox="2.9 632.9 2874.2 1257.3" enable-background="new 2.9 632.9 2874.2 1257.3" xml:space="preserve">
<path d="M2877.1,1887.3l-1053-1179.6c-51.8-57.5-69.1-74.8-103.6-74.8s-69.1,57.5-100.7,57.5c-40.3,0-74.8-57.5-109.3-57.5
	c-23,0-46,25.9-69.1,40.3c-149.6,158.2-227.3,296.3-5.8,443.1c325.1,212.9,184.1,477.6-14.4,768.2L2877.1,1887.3L2877.1,1887.3z
	 M1142.2,1145c-178.4-164,86.3-371.1,215.8-477.6l0,0c-20.1-14.4-37.4-31.6-57.5-31.6c-34.5,0-69.1,57.5-100.7,57.5
	c-40.3,0-74.8-57.5-109.3-57.5c-34.5,0-69.1,31.6-100.7,74.8L2.9,1890.2h702C1424.2,1409.7,1340.7,1329.1,1142.2,1145z"/>
</svg>
