<?xml version="1.0" encoding="utf-8"?>
<!-- Generator: Adobe Illustrator 18.1.1, SVG Export Plug-In . SVG Version: 6.00 Build 0)  -->
<svg version="1.1" id="Layer_1" xmlns="http://www.w3.org/2000/svg" xmlns:xlink="http://www.w3.org/1999/xlink" x="0px" y="0px"
	 viewBox="-1381.2 1405 66.7 52.8" enable-background="new -1381.2 1405 66.7 52.8" xml:space="preserve">
<g>
	<rect x="-1348" y="1454.7" width="19.4" height="3.2"/>
	<path d="M-1315,1405.5c-0.7-0.7-1.8-0.6-2.4,0.1l-6.2,6.6h-0.2l0,0.1l-10.2,3.2c-0.8,0.3-1.3,1.2-1,2c0.3,0.8,1.2,1.3,2,1l7.7-2.4
		l-11.6,30.4l-41.2,4.3c-1.8,0.2-3.2,1.8-3,3.6c0.2,1.8,1.8,3.2,3.6,3l47.2-4.9c1.8-0.2,3.2-1.8,3-3.6s-1.8-3.2-3.6-3l-2.5,0.3
		l12-31.3c0,0,0,0,0,0l4.7-1.5c0.8-0.3,1.3-1.2,1-2c-0.2-0.7-0.8-1.1-1.4-1.1l2.1-2.3C-1314.3,1407.3-1314.3,1406.2-1315,1405.5z"/>
</g>
</svg>
